<?xml version="1.0" standalone="no"?>
<!DOCTYPE svg PUBLIC "-//W3C//DTD SVG 20010904//EN"
 "http://www.w3.org/TR/2001/REC-SVG-20010904/DTD/svg10.dtd">
<svg version="1.0" xmlns="http://www.w3.org/2000/svg"
 width="700.000000pt" height="700.000000pt" viewBox="0 0 700.000000 700.000000"
 preserveAspectRatio="xMidYMid meet">
<metadata>
Created by potrace 1.14, written by Peter Selinger 2001-2017
</metadata>
<g transform="translate(0.000000,700.000000) scale(0.100000,-0.100000)"
fill="#000000" stroke="none">
<path d="M2349 6996 c-2 -2 -24 -6 -49 -10 -107 -14 -130 -20 -215 -48 -197
-67 -356 -166 -505 -317 -200 -201 -321 -453 -356 -739 -2 -21 -4 -85 -5 -143
l0 -107 -82 -27 c-210 -70 -391 -185 -552 -349 -448 -457 -522 -1166 -177
-1710 l30 -47 -34 -52 c-31 -48 -80 -141 -117 -227 -9 -19 -27 -75 -41 -125
-212 -744 214 -1507 961 -1721 8 -2 12 -36 13 -111 0 -155 15 -254 57 -388 98
-312 337 -591 633 -740 78 -39 238 -97 306 -110 138 -26 381 -27 499 -1 178
39 315 97 463 196 l92 61 0 1173 0 1172 -90 1 c-61 1 -91 -3 -92 -11 -1 -6 -2
-76 -3 -156 l-1 -145 -227 -3 c-178 -2 -227 0 -228 10 -1 7 -2 78 -3 158 l-1
145 -155 1 -155 1 -3 226 c-2 178 0 227 10 228 7 1 78 2 158 3 l145 1 1 93 2
92 -47 1 c-25 0 -97 0 -158 -1 l-113 -1 0 230 0 230 158 3 157 3 0 90 0 90
-145 1 c-80 1 -151 2 -157 3 -10 1 -13 53 -13 226 l0 225 23 1 c12 1 83 2 157
3 l135 1 2 145 c0 80 2 151 2 158 1 10 50 12 228 10 l227 -3 1 -155 0 -155 93
-1 92 -1 0 1172 0 1172 -47 34 c-155 112 -329 190 -507 225 -71 14 -357 30
-367 20z"/>
<path d="M4330 6985 c-173 -27 -344 -96 -502 -201 l-98 -65 0 -1173 0 -1172
90 -1 c57 0 91 4 92 11 0 6 2 76 3 156 l1 145 224 3 c129 1 226 -2 229 -7 3
-5 6 -75 5 -155 0 -98 3 -147 10 -148 6 -1 72 -2 146 -4 74 -1 141 -2 148 -3
9 -1 12 -53 12 -226 0 -207 -1 -225 -17 -226 -10 -1 -81 -2 -158 -3 l-140 -1
-1 -92 -1 -93 158 0 159 0 0 -230 0 -229 -150 0 c-83 0 -155 -3 -159 -5 -5 -3
-8 -45 -7 -93 l1 -88 155 0 155 -1 0 -229 0 -229 -152 0 c-105 1 -154 -2 -155
-10 -1 -6 -2 -69 -4 -141 -1 -71 -2 -138 -3 -148 -1 -16 -17 -17 -228 -15
l-228 3 1 156 1 156 -94 0 -93 -1 0 -1172 0 -1172 98 -65 c230 -154 453 -218
732 -212 179 4 345 41 483 107 31 15 60 28 64 28 3 0 52 30 107 67 314 208
519 542 562 918 2 17 4 78 4 137 l1 107 67 22 c297 96 541 280 724 544 95 137
172 319 209 495 23 113 32 344 16 468 -23 185 -99 388 -214 571 l-22 34 29 42
c64 94 161 315 177 405 2 14 8 41 13 60 35 138 35 413 -1 566 -6 27 -13 60
-15 73 -11 55 -79 222 -125 306 -69 126 -137 215 -248 325 -147 145 -337 262
-528 325 l-82 27 0 101 c-1 126 -7 189 -32 295 -115 496 -524 875 -1034 958
-72 12 -305 11 -385 -1z"/>
<path d="M3086 3911 c-2 -3 -3 -190 -2 -416 l1 -410 415 0 415 0 1 413 c0 226
-2 413 -5 414 -19 5 -822 4 -825 -1z"/>
</g>
</svg>
